HIERARCHY
ROOT Hips
{
	OFFSET 0.000000 0.000000 0.000000
	CHANNELS 6 Xposition Yposition Zposition Xrotation Yrotation Zrotation
	JOINT Chest
	{
		OFFSET 0.000000 0.009282 11.569106
		CHANNELS 3 Xrotation Yrotation Zrotation
		JOINT Chest2
		{
			OFFSET 0.000000 -0.016863 9.269641
			CHANNELS 3 Xrotation Yrotation Zrotation
			JOINT Chest3
			{
				OFFSET 0.000000 0.000000 8.374491
				CHANNELS 3 Xrotation Yrotation Zrotation
				JOINT Chest4
				{
					OFFSET 0.000000 0.000000 8.374493
					CHANNELS 3 Xrotation Yrotation Zrotation
					JOINT Neck
					{
						OFFSET 0.000000 -0.000001 12.152554
						CHANNELS 3 Xrotation Yrotation Zrotation
						JOINT Head
						{
							OFFSET 0.000000 -0.040100 7.802319
							CHANNELS 3 Xrotation Yrotation Zrotation
							End Site
							{
								OFFSET 0.000000 -0.020946 14.853096
							}
						}
					}
					JOINT RightCollar
					{
						OFFSET -2.894404 0.000000 6.791374
						CHANNELS 3 Xrotation Yrotation Zrotation
						JOINT RightShoulder
						{
							OFFSET -13.574684 0.000000 0.000000
							CHANNELS 3 Xrotation Yrotation Zrotation
							JOINT RightElbow
							{
								OFFSET -23.923903 0.000000 0.000000
								CHANNELS 3 Xrotation Yrotation Zrotation
								JOINT RightWrist
								{
									OFFSET -19.846718 -0.012765 0.000000
									CHANNELS 3 Xrotation Yrotation Zrotation
									End Site
									{
										OFFSET -14.973145 0.000000 0.000000
									}
								}
							}
						}
					}
					JOINT LeftCollar
					{
						OFFSET 2.894404 0.000000 6.791374
						CHANNELS 3 Xrotation Yrotation Zrotation
						JOINT LeftShoulder
						{
							OFFSET 13.574684 0.000000 0.000000
							CHANNELS 3 Xrotation Yrotation Zrotation
							JOINT LeftElbow
							{
								OFFSET 23.923903 0.000000 0.000000
								CHANNELS 3 Xrotation Yrotation Zrotation
								JOINT LeftWrist
								{
									OFFSET 19.846718 -0.012765 0.000000
									CHANNELS 3 Xrotation Yrotation Zrotation
									End Site
									{
										OFFSET 14.973145 0.000000 0.000000
									}
								}
							}
						}
					}
				}
			}
		}
	}
	JOINT RightHip
	{
		OFFSET -9.469263 -0.004642 0.045487
		CHANNELS 3 Xrotation Yrotation Zrotation
		JOINT RightKnee
		{
			OFFSET 0.000000 -0.002666 -40.478676
			CHANNELS 3 Xrotation Yrotation Zrotation
			JOINT RightAnkle
			{
				OFFSET 0.000000 -0.049110 -35.224068
				CHANNELS 3 Xrotation Yrotation Zrotation
				JOINT RightToe
				{
					OFFSET 0.000000 -12.539530 -6.151390
					CHANNELS 3 Xrotation Yrotation Zrotation
					End Site
					{
						OFFSET 0.000000 -5.044995 -1.291870
					}
				}
			}
		}
	}
	JOINT LeftHip
	{
		OFFSET 9.469263 -0.004642 0.045487
		CHANNELS 3 Xrotation Yrotation Zrotation
		JOINT LeftKnee
		{
			OFFSET 0.000000 -0.002666 -40.478676
			CHANNELS 3 Xrotation Yrotation Zrotation
			JOINT LeftAnkle
			{
				OFFSET 0.000000 -0.049110 -35.224068
				CHANNELS 3 Xrotation Yrotation Zrotation
				JOINT LeftToe
				{
					OFFSET 0.000000 -12.539530 -6.151390
					CHANNELS 3 Xrotation Yrotation Zrotation
					End Site
					{
						OFFSET 0.000000 -5.044995 -1.291870
					}
				}
			}
		}
	}
}
MOTION
Frames: 17
Frame Time: 0.016667
-21.156191 -11.321099 83.025925 2.940692 7.162439 -113.658378 5.073044 1.224055 5.904991 2.269752 0.465744 2.572268 2.269751 0.465744 2.572269 1.704300 0.339768 1.930953 17.334204 -5.068002 -6.565374 -4.255991 -6.981318 -13.736748 -5.599950 -9.584168 -17.641899 -5.208373 -80.304358 2.696558 24.993540 2.867003 -1.770317 -24.453175 38.127240 42.803921 3.672198 7.782060 -17.188552 -24.085650 77.247800 15.094276 0.872638 -4.425928 1.706982 7.749620 -18.463782 -25.479766 9.174410 1.337417 -2.534538 6.194742 -1.241887 -1.363590 -7.500216 0.151165 0.212319 -0.037029 0.087399 -0.011971 9.303057 0.201972 -1.432870 1.936750 0.831188 -3.936789 -3.280287 -0.898814 2.251856 0.095757 0.010812 0.016149 
-21.176987 -11.274757 83.024040 2.915765 7.082807 -113.600464 5.049058 1.228102 5.895097 2.259661 0.466572 2.569354 2.259661 0.466572 2.569355 1.696734 0.340442 1.928762 17.271417 -5.082476 -6.589545 -4.373960 -6.993031 -13.789483 -5.609844 -9.580676 -17.620346 -5.433857 -80.321536 2.438691 24.808507 2.872109 -1.876585 -24.370849 38.018353 42.623956 3.616938 7.805153 -17.148443 -24.446538 77.226654 15.550742 0.946476 -4.404407 1.699840 7.767322 -18.453826 -25.448615 9.194171 1.289798 -2.549265 6.047222 -1.235197 -1.436547 -7.461379 0.130123 0.245821 -0.038431 0.096880 -0.011827 9.266266 0.155182 -1.431751 1.892705 0.834305 -3.996143 -3.291991 -0.884247 2.255078 0.101394 0.013049 0.015039 
-21.196178 -11.232235 83.022247 2.890265 7.007547 -113.550543 5.025946 1.240083 5.893807 2.249995 0.471593 2.570267 2.249995 0.471593 2.570262 1.689506 0.344245 1.929453 17.212801 -5.102321 -6.614000 -4.484871 -7.014766 -13.844454 -5.649959 -9.591602 -17.627380 -5.599355 -80.322219 2.224059 24.590216 2.865368 -1.946540 -24.237230 37.869936 42.380426 3.585151 7.797054 -17.127621 -24.683846 77.203944 15.843402 1.005255 -4.392819 1.719641 7.802634 -18.448247 -25.414212 9.202212 1.251019 -2.553790 5.926071 -1.235146 -1.491339 -7.434708 0.115358 0.259648 -0.037926 0.102805 -0.011517 9.230872 0.117164 -1.425972 1.850588 0.830158 -4.034910 -3.300525 -0.867423 2.225414 0.103747 0.015903 0.014096 
-21.212690 -11.193892 83.020378 2.862323 6.941695 -113.513127 5.008563 1.257610 5.899028 2.243059 0.480059 2.573621 2.243060 0.480059 2.573626 1.684341 0.350612 1.931995 17.160077 -5.128533 -6.636882 -4.585730 -7.049162 -13.898583 -5.658314 -9.598826 -17.650722 -5.769618 -80.334615 2.050548 24.369248 2.844059 -1.983561 -24.083966 37.678906 42.101607 3.561546 7.778121 -17.126681 -24.779154 77.187783 15.975172 1.025676 -4.408703 1.749839 7.854719 -18.426503 -25.366558 9.196951 1.226118 -2.561552 5.839370 -1.240183 -1.514037 -7.422256 0.105510 0.257709 -0.036040 0.106387 -0.010970 9.198162 0.092888 -1.410059 1.814408 0.821096 -4.068577 -3.308301 -0.850497 2.202025 0.104205 0.017889 0.013252 
-21.226450 -11.157538 83.018456 2.840981 6.881967 -113.496755 4.988139 1.274378 5.908819 2.234731 0.487977 2.578225 2.234731 0.487977 2.578225 1.678131 0.356569 1.935472 17.123653 -5.155278 -6.657755 -4.656428 -7.086839 -13.948351 -5.663525 -9.601855 -17.670972 -5.875905 -80.346643 1.932780 24.137808 2.826158 -1.992915 -23.935044 37.387930 41.832894 3.568583 7.756310 -17.130610 -24.838840 77.171309 16.054011 1.018841 -4.442103 1.779200 7.915888 -18.403847 -25.313569 9.178956 1.205402 -2.558719 5.786830 -1.252859 -1.520500 -7.419959 0.103507 0.248827 -0.036817 0.107298 -0.009820 9.174648 0.070748 -1.366569 1.775677 0.810176 -4.103938 -3.315671 -0.832568 2.197260 0.105692 0.018458 0.012920 
-21.238710 -11.120502 83.016068 2.820500 6.823591 -113.497492 4.962472 1.291508 5.919479 2.223369 0.496276 2.583356 2.223369 0.496277 2.583353 1.669650 0.362823 1.939339 17.105210 -5.177889 -6.676864 -4.693266 -7.119432 -13.992422 -5.665415 -9.606455 -17.675194 -5.871961 -80.354163 1.922675 23.875370 2.799859 -1.983214 -23.755830 37.014837 41.547542 3.565922 7.742592 -17.129614 -24.792837 77.136591 16.040979 0.997298 -4.476334 1.821480 7.936306 -18.376438 -25.260673 9.144465 1.186788 -2.563151 5.766266 -1.263133 -1.507143 -7.431058 0.106042 0.247113 -0.037316 0.104556 -0.009439 9.158115 0.044983 -1.301474 1.729417 0.805314 -4.137624 -3.322231 -0.812814 2.171873 0.107996 0.017687 0.013273 
-21.251114 -11.080243 83.013130 2.800183 6.766455 -113.514923 4.938660 1.310401 5.934193 2.212233 0.506025 2.590142 2.212233 0.506025 2.590142 1.661343 0.370157 1.944455 17.093453 -5.198471 -6.700808 -4.717353 -7.147353 -14.044173 -5.685489 -9.608797 -17.687371 -5.744665 -80.342750 2.037063 23.650059 2.745420 -1.945848 -23.511806 36.660596 41.149687 3.555719 7.727342 -17.137856 -24.699738 77.100890 15.965905 0.969630 -4.529710 1.889770 7.949101 -18.333280 -25.192374 9.097926 1.169930 -2.577097 5.772549 -1.272631 -1.463342 -7.454432 0.116357 0.240898 -0.037817 0.099249 -0.009876 9.146218 0.016721 -1.221400 1.680707 0.811968 -4.146735 -3.330437 -0.794118 2.137716 0.110606 0.014053 0.014636 
-21.265133 -11.038074 83.009995 2.780585 6.716712 -113.546089 4.921629 1.333384 5.952621 2.204317 0.517383 2.598488 2.204317 0.517383 2.598489 1.655464 0.378679 1.950748 17.082120 -5.219164 -6.732725 -4.740510 -7.172767 -14.110463 -5.734770 -9.614613 -17.720116 -5.526434 -80.304843 2.243620 23.493146 2.668543 -1.885502 -23.254267 36.296882 40.698362 3.510653 7.710865 -17.152142 -24.466224 77.061254 15.755897 0.913339 -4.592389 1.990981 7.979927 -18.288812 -25.118591 9.045062 1.159449 -2.590918 5.807385 -1.285392 -1.398354 -7.491815 0.131428 0.227299 -0.038452 0.094350 -0.011033 9.144136 -0.009368 -1.133362 1.634218 0.818050 -4.143967 -3.344308 -0.769343 2.096424 0.112918 0.008565 0.015982 
-21.280720 -10.995633 83.006500 2.757625 6.676216 -113.588033 4.911220 1.357538 5.967910 2.199979 0.528951 2.605361 2.199979 0.528951 2.605358 1.652264 0.387350 1.955943 17.073873 -5.238187 -6.767259 -4.757674 -7.194548 -14.180709 -5.803301 -9.622119 -17.757879 -5.333990 -80.255201 2.437734 23.387625 2.602674 -1.807500 -22.980349 35.920675 40.242590 3.444494 7.696533 -17.151440 -24.108355 77.036850 15.411057 0.822709 -4.668778 2.111384 8.054155 -18.253703 -25.029404 8.985143 1.165549 -2.600842 5.873586 -1.312106 -1.320291 -7.547620 0.150969 0.209359 -0.037464 0.093035 -0.013463 9.149927 -0.027476 -1.051722 1.590018 0.827028 -4.139184 -3.358525 -0.745821 2.065766 0.112459 0.002731 0.017836 
-21.298092 -10.954054 83.002373 2.736568 6.643637 -113.639718 4.901365 1.377856 5.976716 2.196127 0.538080 2.609190 2.196127 0.538080 2.609189 1.649416 0.394199 1.958844 17.075656 -5.254254 -6.802612 -4.755787 -7.211730 -14.250824 -5.854543 -9.636254 -17.789072 -5.259075 -80.195396 2.546088 23.324369 2.542287 -1.710743 -22.681959 35.536562 39.768770 3.391151 7.689186 -17.152318 -23.813724 76.996490 15.109814 0.741796 -4.738920 2.232422 8.114681 -18.224432 -24.920988 8.921581 1.178743 -2.598690 5.963857 -1.343058 -1.232777 -7.615974 0.170023 0.183383 -0.036504 0.094005 -0.016651 9.160383 -0.044830 -0.982157 1.559342 0.838963 -4.121982 -3.384272 -0.720614 2.025319 0.112892 -0.004576 0.020198 
-21.312887 -10.909952 82.997696 2.722547 6.622837 -113.703006 4.892029 1.391935 5.979778 2.193108 0.545049 2.609849 2.193108 0.545048 2.609851 1.647181 0.399436 1.959360 17.091771 -5.267434 -6.840694 -4.726900 -7.224236 -14.324006 -5.887058 -9.649181 -17.808952 -5.288296 -80.134778 2.556182 23.263052 2.481286 -1.568428 -22.358817 35.123664 39.237558 3.349839 7.692621 -17.150994 -23.681231 76.936651 14.968436 0.705727 -4.804096 2.345320 8.168362 -18.176733 -24.809617 8.862561 1.190071 -2.575518 6.067958 -1.377623 -1.153894 -7.689907 0.195000 0.152693 -0.035870 0.094167 -0.018337 9.175063 -0.056212 -0.930480 1.546140 0.842652 -4.073425 -3.420417 -0.692411 2.019035 0.114428 -0.010871 0.023079 
-21.325174 -10.860919 82.992622 2.714509 6.615675 -113.771035 4.881114 1.401552 5.977677 2.188990 0.550627 2.608299 2.188990 0.550627 2.608297 1.644116 0.403642 1.958212 17.125183 -5.279784 -6.882571 -4.665675 -7.235773 -14.402798 -5.901791 -9.668083 -17.833883 -5.357120 -80.065895 2.514365 23.156571 2.414719 -1.377066 -21.968351 34.619893 38.624248 3.324699 7.698037 -17.158501 -23.632468 76.875131 14.914830 0.684393 -4.866610 2.441472 8.217013 -18.112130 -24.674955 8.817146 1.189761 -2.550226 6.172877 -1.397233 -1.094890 -7.765748 0.218332 0.135081 -0.033885 0.091358 -0.016402 9.200748 -0.067807 -0.901865 1.544403 0.836069 -4.011281 -3.464084 -0.658493 2.022756 0.115067 -0.011974 0.023592 
-21.339561 -10.806479 82.987434 2.713234 6.621847 -113.849090 4.871045 1.410252 5.975613 2.184274 0.554988 2.607990 2.184274 0.554987 2.607987 1.640596 0.406935 1.957991 17.171792 -5.295587 -6.935233 -4.580213 -7.251326 -14.501706 -5.918073 -9.680920 -17.874861 -5.396267 -80.010366 2.479204 22.992169 2.340699 -1.160140 -21.509121 34.019376 37.939857 3.310422 7.695656 -17.159539 -23.530048 76.826063 14.804568 0.645839 -4.924165 2.524969 8.291520 -18.013364 -24.504154 8.793564 1.179762 -2.544400 6.268553 -1.399836 -1.034560 -7.841520 0.233648 0.140114 -0.030318 0.089526 -0.014992 9.237395 -0.079701 -0.889314 1.558761 0.829216 -3.939904 -3.517065 -0.632010 2.022678 0.113286 -0.006522 0.022786 
-21.360703 -10.750347 82.982079 2.717921 6.635690 -113.935711 4.857894 1.414099 5.966746 2.177604 0.556118 2.604823 2.177605 0.556118 2.604823 1.635596 0.407822 1.955610 17.229989 -5.310854 -6.994540 -4.473009 -7.264936 -14.611829 -5.936292 -9.667983 -17.918469 -5.446749 -79.958361 2.428433 22.807438 2.233388 -0.944519 -20.969996 33.353631 37.163100 3.307012 7.690694 -17.133682 -23.403700 76.802445 14.658020 0.566960 -4.981884 2.596825 8.426032 -17.875432 -24.289121 8.791632 1.172442 -2.553178 6.347734 -1.406275 -0.957400 -7.913858 0.247528 0.148439 -0.026309 0.090277 -0.014038 9.284008 -0.094008 -0.886708 1.585951 0.826915 -3.865449 -3.581300 -0.617407 2.022981 0.110261 0.004268 0.019358 
-21.387836 -10.695129 82.976608 2.723530 6.650156 -114.026552 4.836390 1.417449 5.958662 2.167645 0.556496 2.601429 2.167645 0.556496 2.601432 1.628126 0.408160 1.953060 17.296708 -5.335983 -7.066050 -4.351082 -7.293313 -14.747217 -5.941464 -9.654455 -17.941230 -5.849635 -79.878939 2.032732 22.713584 2.075420 -0.726561 -20.349685 32.626639 36.237439 3.300392 7.683662 -17.100997 -23.345740 76.791284 14.577394 0.446770 -5.041984 2.671070 8.600966 -17.714651 -24.042624 8.796482 1.174186 -2.583427 6.423016 -1.422360 -0.850784 -7.985849 0.259052 0.154646 -0.024504 0.095979 -0.015160 9.325755 -0.106303 -0.898032 1.633083 0.828435 -3.787077 -3.656262 -0.604983 2.046299 0.104948 0.009536 0.017274 
-21.421606 -10.637800 82.971664 2.731872 6.667254 -114.119839 4.809266 1.421741 5.954528 2.155072 0.557612 2.600823 2.155072 0.557613 2.600818 1.618699 0.409053 1.952594 17.365126 -5.378152 -7.145252 -4.228200 -7.350329 -14.902670 -5.947051 -9.634410 -17.973633 -6.377970 -79.769759 1.498044 22.790991 1.883464 -0.525188 -19.719902 31.845542 35.231622 3.268667 7.692249 -17.076950 -23.483302 76.775240 14.709161 0.312240 -5.114094 2.741599 8.827150 -17.547608 -23.750917 8.800963 1.179649 -2.624405 6.502836 -1.440023 -0.744144 -8.061257 0.263943 0.173956 -0.020713 0.103544 -0.017041 9.370997 -0.121483 -0.912591 1.693248 0.827957 -3.690296 -3.741927 -0.579335 2.044504 0.097965 0.006603 0.017852 
-21.455690 -10.579914 82.967560 2.741498 6.692785 -114.218842 4.776604 1.423981 5.950011 2.141108 0.559001 2.599171 2.141108 0.559000 2.599180 1.608231 0.410159 1.951354 17.432232 -5.429466 -7.229540 -4.108930 -7.422230 -15.070691 -5.957783 -9.608419 -18.009238 -6.729659 -79.606715 1.135785 23.067383 1.639266 -0.374371 -19.031957 31.070636 34.193952 3.213112 7.725938 -17.048617 -23.843711 76.747707 15.096309 0.183193 -5.184384 2.794787 9.079016 -17.398437 -23.431072 8.825368 1.184319 -2.685599 6.581309 -1.454296 -0.630412 -8.147110 0.266322 0.207910 -0.017770 0.112213 -0.019136 9.426701 -0.130889 -0.916972 1.748557 0.825886 -3.597816 -3.821601 -0.548129 2.060716 0.089127 -0.000783 0.019879 
